<svg xmlns="http://www.w3.org/2000/svg" viewBox="0 0 64 64" id="women-fashion"><path fill="#207c96" d="m57 40.7-7.6-25.6c-.4-1.2-1.2-2.1-2.4-2.6L38.3 9h-.5c-.1 0-.2.1-.3.1-3.2 2.4-7.7 2.4-10.9 0-.1-.1-.2-.1-.3-.1h-.7L17 12.5c-1.1.5-2 1.4-2.4 2.6L7.1 40.7c-.2.5.1 1.1.7 1.2h.1l9.2 2.2v4.5c0 .6.4 1 1 1 .3 0 .6-.1.8-.4l1.1-1.5c.4-.5 1-.8 1.6-.8h4.3c1 0 2-.4 2.8-1.1l6-5.3h.1l1.2-1c.4-.3.8-.5 1.3-.5H41v6c-1.1.1-2.1.2-3.1.5-2.1.5-4.1 1.5-5.8 2.9-.4.4-.9.8-1.3 1.2-.7.8-1.3 1.6-1.9 2.5-.4.6-1 1-1.7 1-.6 0-1 .4-1 1s.4 1 1 1H46c.6 0 1-.4 1-1v-9.8l9.2-2.2c.6-.2.9-.8.8-1.4 0 .1 0 .1 0 0z"></path><path d="m57 40.7-7.6-25.6c-.4-1.2-1.2-2.1-2.4-2.6L38.3 9h-.5c-.1 0-.2.1-.3.1-1.6 1.2-3.5 1.8-5.5 1.9v31.8l2.6-2.3h.1l1.2-1c.4-.3.8-.5 1.3-.5H41v6c-1.1.1-2.1.2-3.1.5-2.1.5-4.1 1.5-5.8 2.9V55h14c.6 0 1-.4 1-1v-9.8l9.2-2.2c.5-.1.8-.7.7-1.3 0 .1 0 .1 0 0z" opacity=".1"></path><path fill="#155263" d="M42.8 45.4c-.2-.3-.5-.4-.8-.4-1.4 0-2.8.2-4.1.5-.5.1-.9.7-.7 1.2l1.9 7.5c.1.5.7.9 1.2.7.4-.1.6-.4.7-.7l2-8c0-.3 0-.6-.2-.8z"></path><path d="M42.8 45.4c-.2-.3-.5-.4-.8-.4-1.4 0-2.8.2-4.1.5-.5.1-.9.7-.7 1.2l1.9 7.5c.1.5.7.9 1.2.7.4-.1.6-.4.7-.7l2-8c0-.3 0-.6-.2-.8z" opacity=".1"></path><path fill="#ff6f3c" d="m47 44.2 1.8-.4 7.5-1.8c.2-.1.4-.2.5-.4.2-.3.2-.6.2-.9L55.9 37 47 39.1v5.1z"></path><path d="m47 44.2 1.8-.4 7.5-1.8c.2-.1.4-.2.5-.4.2-.3.2-.6.2-.9L55.9 37 47 39.1v5.1z" opacity=".1"></path><path fill="#ff6f3c" d="m17 44.2-1.8-.4L7.7 42c-.2-.1-.4-.2-.5-.4-.2-.3-.2-.6-.2-.9L8.1 37l8.9 2.1v5.1z"></path><path fill="#155263" d="M30.8 49.6c-.1.1-.2.3-.4.4l.4 2.8v.3l.3 2h.9v-6.6c-.4.3-.8.7-1.2 1.1zm1.3-1.2c-.1 0-.1 0 0 0L32 55h.9l.3-2 .4-3.3.4-2.6c-.7.3-1.3.8-1.9 1.3zM26.6 9.2c-.1-.1-.2-.1-.3-.1h-.7l-.8.3.3 2 4.2 31 .3 2.4 2.3-2V11c-1.9-.1-3.8-.7-5.3-1.8zm11.8-.1c-.2-.1-.4-.1-.6-.1-.1 0-.2.1-.3.1-1.6 1.2-3.5 1.8-5.5 1.9v31.8l2.6-2.3.3-.3.4-2.8 3.6-26.1.3-2-.8-.2z"></path><path d="M32.1 48.4c-.1 0-.1 0 0 0L32 55h.9l.3-2 .4-3.3.4-2.6c-.7.3-1.3.8-1.9 1.3zm6.3-39.3c-.2-.1-.4-.1-.6-.1-.1 0-.2.1-.3.1-1.6 1.2-3.5 1.8-5.5 1.9v31.8l2.6-2.3.3-.3.4-2.8 3.6-26.1.3-2-.8-.2z" opacity=".1"></path><path fill="#ff6f3c" d="M42 37h-4.9c-1 0-1.9.4-2.6 1l-7.3 6.4c-.4.4-.9.6-1.4.6h-4.3c-1.3 0-2.4.6-3.2 1.6l-5.1 6.8c-.3.4-.2 1.1.2 1.4.2.1.4.2.6.2h13.2c1.4 0 2.7-.7 3.4-1.9.5-.8 1-1.5 1.6-2.1.3-.4.7-.7 1.1-1 1.5-1.2 3.2-2.1 5-2.5 1.2-.3 2.4-.4 3.6-.4.6 0 1-.4 1-1v-8c.1-.7-.3-1.1-.9-1.1z"></path><path d="M42 37h-4.9c-1 0-1.9.4-2.6 1L32 40.2v11c.1-.1.1-.2.2-.3.3-.4.7-.7 1.1-1 1.5-1.2 3.2-2.1 5-2.5 1.2-.3 2.4-.4 3.6-.4.6 0 1-.4 1-1v-8c.1-.6-.3-1-.9-1z" opacity=".1"></path></svg>