<svg width="44" height="44" viewBox="0 0 44 44" fill="none" xmlns="http://www.w3.org/2000/svg">
<path d="M37.5832 36.6666V37.5833C37.5832 37.8264 37.4866 38.0596 37.3147 38.2315C37.1428 38.4034 36.9097 38.5 36.6665 38.5H7.33321C7.0901 38.5 6.85694 38.4034 6.68503 38.2315C6.51312 38.0596 6.41654 37.8264 6.41654 37.5833V36.6666H37.5832Z" fill="#868FD0"/>
<path d="M11 36.6666V37.5833C11 37.8264 11.0966 38.0596 11.2685 38.2315C11.4404 38.4034 11.6736 38.5 11.9167 38.5H21.0833C21.3264 38.5 21.5596 38.4034 21.7315 38.2315C21.9034 38.0596 22 37.8264 22 37.5833V36.6666H11Z" fill="#868FD0"/>
<path d="M12.8335 24.75H20.1668V36.6666H12.8335V24.75Z" fill="#868FD0"/>
<path d="M11.9167 3.66675V9.06592L8.25 11.7792V3.66675H11.9167Z" fill="#868FD0"/>
<path d="M40.3332 17.4168H37.189L22.5224 6.60008C22.3654 6.48536 22.176 6.42353 21.9815 6.42353C21.7871 6.42353 21.5977 6.48536 21.4407 6.60008L6.81071 17.4168H3.66654L7.80071 14.3643L7.94737 14.2451L13.3099 10.2851L21.9632 3.86841L40.3332 17.4168Z" fill="#868FD0"/>
<path d="M43.0833 36.6668H35.75V18.6268L22 8.47009L8.25 18.6268V36.6668H0.916667C0.673552 36.6668 0.440394 36.7633 0.268485 36.9352C0.0965771 37.1072 0 37.3403 0 37.5834C0 37.8265 0.0965771 38.0597 0.268485 38.2316C0.440394 38.4035 0.673552 38.5001 0.916667 38.5001H43.0833C43.3265 38.5001 43.5596 38.4035 43.7315 38.2316C43.9034 38.0597 44 37.8265 44 37.5834C44 37.3403 43.9034 37.1072 43.7315 36.9352C43.5596 36.7633 43.3265 36.6668 43.0833 36.6668ZM24.75 23.8334C24.75 23.5903 24.8466 23.3572 25.0185 23.1852C25.1904 23.0133 25.4236 22.9168 25.6667 22.9168H32.0833C32.3265 22.9168 32.5596 23.0133 32.7315 23.1852C32.9034 23.3572 33 23.5903 33 23.8334V30.2501C33 30.4932 32.9034 30.7264 32.7315 30.8983C32.5596 31.0702 32.3265 31.1668 32.0833 31.1668H25.6667C25.4236 31.1668 25.1904 31.0702 25.0185 30.8983C24.8466 30.7264 24.75 30.4932 24.75 30.2501V23.8334ZM11 36.6668V23.8334C11 23.5903 11.0966 23.3572 11.2685 23.1852C11.4404 23.0133 11.6736 22.9168 11.9167 22.9168H21.0833C21.3264 22.9168 21.5596 23.0133 21.7315 23.1852C21.9034 23.3572 22 23.5903 22 23.8334V36.6668H11Z" fill="#868FD0"/>
<path d="M26.5835 24.75H31.1668V29.3333H26.5835V24.75Z" fill="#868FD0"/>
</svg>
