<svg xmlns="http://www.w3.org/2000/svg" xmlns:xlink="http://www.w3.org/1999/xlink" viewBox="0 0 512 512" id="fever"><defs><linearGradient id="b" x1="20.009" x2="262.581" y1="-23.762" y2="131.867" gradientUnits="userSpaceOnUse"><stop offset=".503" stop-color="#444241"></stop><stop offset=".556" stop-color="#42403f"></stop><stop offset="1" stop-color="#353433"></stop></linearGradient><linearGradient id="d" x1="228.127" x2="228.127" y1="400.547" y2="321.92" gradientUnits="userSpaceOnUse"><stop offset="0" stop-color="#ffd5b3"></stop><stop offset=".734" stop-color="#e29e86"></stop></linearGradient><linearGradient id="g" x1="344.293" x2="414.741" y1="372.086" y2="372.086" gradientUnits="userSpaceOnUse"><stop offset="0" stop-color="#d7d7f7"></stop><stop offset=".414" stop-color="#d5d5f6"></stop><stop offset=".656" stop-color="#ccccf4"></stop><stop offset=".854" stop-color="#bebef1"></stop><stop offset="1" stop-color="#aeaeed"></stop></linearGradient><linearGradient id="a" x1="375.638" x2="375.638" y1="316.919" y2="306.919" gradientUnits="userSpaceOnUse"><stop offset="0" stop-color="#9191c1"></stop><stop offset=".015" stop-color="#9292c2"></stop><stop offset=".243" stop-color="#a0a0c9"></stop><stop offset=".523" stop-color="#a9a9cd"></stop><stop offset="1" stop-color="#ababce"></stop></linearGradient><linearGradient id="i" x1="375.677" x2="375.677" y1="343.653" y2="333.653" xlink:href="#a"></linearGradient><linearGradient id="j" x1="375.717" x2="375.717" y1="370.386" y2="360.386" xlink:href="#a"></linearGradient><radialGradient id="c" cx="228.127" cy="416.685" r="119.871" gradientUnits="userSpaceOnUse"><stop offset="0" stop-color="#718fdb"></stop><stop offset=".201" stop-color="#7692df"></stop><stop offset="1" stop-color="#859aec"></stop></radialGradient><radialGradient id="e" cx="105.943" cy="116.114" r="266.474" gradientUnits="userSpaceOnUse"><stop offset="0" stop-color="#ffd5b3"></stop><stop offset=".552" stop-color="#fed3b2"></stop><stop offset=".751" stop-color="#faccad"></stop><stop offset=".892" stop-color="#f3c1a4"></stop><stop offset="1" stop-color="#eab198"></stop></radialGradient><radialGradient id="f" cx="300.455" cy="80.135" r="84.703" gradientUnits="userSpaceOnUse"><stop offset="0" stop-color="#6eb1ed"></stop><stop offset=".594" stop-color="#6cb0eb"></stop><stop offset=".808" stop-color="#65abe6"></stop><stop offset=".96" stop-color="#5aa3dc"></stop><stop offset="1" stop-color="#55a0d8"></stop></radialGradient><radialGradient id="h" cx="353.221" cy="297.487" r="141.993" gradientUnits="userSpaceOnUse"><stop offset="0" stop-color="#f98585"></stop><stop offset=".581" stop-color="#f88383"></stop><stop offset=".79" stop-color="#f57c7c"></stop><stop offset=".939" stop-color="#f07171"></stop><stop offset="1" stop-color="#ed6969"></stop></radialGradient></defs><g data-name="medical illness healthcare sickness pacient temperature"><path fill="url(#b)" d="M339.401 89.354V63.451c0-17.37-15.356-31.451-34.3-31.451H188.67c-39.984 0-72.864 27.882-76.781 63.598a58.177 58.177 0 0 0-8.777 41.573l4.967 29.656h240.098l4.93-29.156c3.047-18.012-2.536-35.196-13.706-48.317Z"></path><path fill="url(#c)" d="M306.755 353.37H149.5a78.627 78.627 0 0 0-78.627 78.628c0 17.369 3.505 25.504 31.45 31.451 0 0 94.083 16.551 125.805 16.551s125.804-16.55 125.804-16.55c27.945-5.948 31.45-14.083 31.45-31.452a78.627 78.627 0 0 0-78.627-78.627Z"></path><path fill="url(#d)" d="M228.128 400.547a47.176 47.176 0 0 1-47.177-47.176V321.92h94.353v31.451a47.176 47.176 0 0 1-47.176 47.176Z"></path><path fill="url(#e)" d="M336.97 252.437a7.93 7.93 0 0 1 6.51-6.507 31.73 31.73 0 0 0 26.177-30.944v-23.588a31.736 31.736 0 0 0-26.36-30.976 8.012 8.012 0 0 1-6.477-6.178 63.114 63.114 0 0 0-61.516-49.336h-94.353a63.114 63.114 0 0 0-61.516 49.336 8.012 8.012 0 0 1-6.476 6.178 31.736 31.736 0 0 0-26.361 30.976v23.588a31.73 31.73 0 0 0 26.176 30.944 7.93 7.93 0 0 1 6.51 6.507c5.506 34.359 27.081 96.215 108.844 96.215s103.337-61.856 108.843-96.215Z"></path><path fill="#414344" d="M152.919 199.273a93.317 93.317 0 0 1 30.753-4.706c-7.485-5.37-18.042-12.257-26.362-17.15-5.704-3.356-.629-11.972 5.07-8.62 5.579 3.281 15.366 9.438 23.674 15.204 14.586 10.121 17.73 13.701 16.014 18.24-.657 1.74-2.612 4.492-8.306 3.391-18.595-3.599-37.262 2.981-37.449 3.047-6.208 2.23-9.626-7.152-3.394-9.406zm39.963 2.833zm107.053 6.571c-.18-.064-18.846-6.643-37.442-3.045-5.694 1.103-7.648-1.652-8.305-3.392-1.716-4.538 1.426-8.118 16.012-18.24 8.309-5.765 18.096-11.922 23.674-15.202 5.698-3.353 10.776 5.262 5.07 8.619-8.32 4.893-18.877 11.78-26.361 17.15a93.544 93.544 0 0 1 30.753 4.706c6.256 2.262 2.8 11.647-3.4 9.404z"></path><path fill="url(#f)" d="M339.559 81.91c-32.603 30.277-33.36 44.984-33.57 51.88a33.569 33.569 0 0 0 67.139 0c-.208-6.878-.971-21.607-33.57-51.88Z"></path><path fill="url(#g)" d="m369.42 386.25-.292-99.75c0-29.781 45-29.761 45 0l.003 99.9a49.5 49.5 0 1 1-44.71-.15Z"></path><path fill="url(#h)" d="M396.628 411.116V286.5c0-6.611-10-6.62-10 0v124.616a22.5 22.5 0 1 0 10 0Z"></path><path fill="url(#a)" d="M377.127 306.92h-7.94l.03 10h7.91c6.622 0 6.608-10 0-10Z"></path><path fill="url(#i)" d="M377.127 333.653h-7.86l.029 10h7.832c6.621 0 6.608-10 0-10Z"></path><path fill="url(#j)" d="M377.127 360.386h-7.782l.03 10h7.753c6.621 0 6.608-10 0-10Z"></path></g></svg>